. 
 
http://www.torrenting.com          :     Once & For all ;)


               www . Torrenting . Com 

(((((((((((((= Enjoy No RAR releases =))))))))))))))))))))


...................................NFO:....................................

.








































          
          
              
              
                    
                    
                    
                    

The.Fall.of.the.Louse.of.Usher.2002.DVDRiP.XviD-SiC

Poster:
[img]http://img859.imageshack.us/img859/746/thefallofthelouseofus.jpg[/img]

IMDB Link: 
http://www.imdb.com/title/tt0268295/

Description: Rock star Roddy Usher's wife is murdered and Rod is sent to a lunatic asylum in this gothic-comedy-horror-musical.





General
Complete name                    : The.Fall.of.the.Louse.of.Usher.2002.DVDRiP.XviD-SiC.avi
Format                           : AVI
Format/Info                      : Audio Video Interleave
File size                        : 1.37 GiB
Duration                         : 1h 22mn
Overall bit rate                 : 2 364 Kbps

Video
ID                               : 0
Format                           : MPEG-4 Visual
Format profile                   : Simple@L3
Format settings, BVOP            : 2
Format settings, QPel            : No
Format settings, GMC             : No warppoints
Format settings, Matrix          : Default (H.263)
Muxing mode                      : Packed bitstream
Codec ID                         : XVID
Codec ID/Hint                    : XviD
Duration                         : 1h 22mn
Bit rate                         : 2 132 Kbps
Width                            : 640 pixels
Height                           : 480 pixels
Display aspect ratio             : 4:3
Frame rate                       : 29.970 fps
Color space                      : YUV
Chroma subsampling               : 4:2:0
Bit depth                        : 8 bits
Scan type                        : Progressive
Compression mode                 : Lossy
Bits/(Pixel*Frame)               : 0.232
Stream size                      : 1.23 GiB (90%)
Writing library                  : XviD 1.0.3 (UTC 2004-12-20)

Audio
ID                               : 1
Format                           : AC-3
Format/Info                      : Audio Coding 3
Mode extension                   : CM (complete main)
Codec ID                         : 2000
Duration                         : 1h 22mn
Bit rate mode                    : Constant
Bit rate                         : 224 Kbps
Channel(s)                       : 2 channels
Channel positions                : Front: L R
Sampling rate                    : 48.0 KHz
Bit depth                        : 16 bits
Compression mode                 : Lossy
Stream size                      : 133 MiB (9%)
Alignment                        : Aligned on interleaves
Interleave, duration             : 64 ms (1.92 video frames)
Interleave, preload duration     : 192 ms
Title                            : VTS_01_1 T80 2_0ch 224Kbps DELAY 0ms

























Screenshots:
[img]http://img35.imageshack.us/img35/8016/vlcsnap2012013014h42m41.png[/img]
[img]http://img692.imageshack.us/img692/7254/vlcsnap2012013014h42m43b.png[/img]
[img]http://img860.imageshack.us/img860/4219/vlcsnap2012013014h42m44.png[/img]
[img]http://img853.imageshack.us/img853/4678/vlcsnap2012013014h42m47.png[/img]




Note :  

Source: Friend of a friend. 

Enjoy!

Respects to T00NG0D, CM8, Rx, ELEKTRI4KA, PA, YeFsTe, MrRep and everyone in the struggle...